HIERARCHY
ROOT Bip001_Pelvis
{
  OFFSET 34.4345 95.6767 -26.8758
  CHANNELS 6 Xposition Yposition Zposition Zrotation Xrotation Yrotation
  JOINT Bip001_Spine
  {
    OFFSET 1.4188e-005 10.2191 -0.0116013
    CHANNELS 3 Zrotation Xrotation Yrotation
    JOINT Bip001_L_Thigh
    {
      OFFSET 11.0458 -10.2192 0.0116197
      CHANNELS 3 Zrotation Xrotation Yrotation
      JOINT Bip001_L_Calf
      {
        OFFSET -0.707118 -44.0221 0.360014
        CHANNELS 3 Zrotation Xrotation Yrotation
        JOINT Bip001_L_Foot
        {
          OFFSET -0.651902 -40.5938 -3.56146
          CHANNELS 3 Zrotation Xrotation Yrotation
          JOINT Bip001_L_Toe0
          {
            OFFSET 0.0530839 -10.2181 13.1504
            CHANNELS 3 Zrotation Xrotation Yrotation
            End Site
            {
              OFFSET -1.02532e-005 0 7.55606
            }
          }
        }
      }
    }
    JOINT Bip001_R_Thigh
    {
      OFFSET -11.0458 -10.2191 0.0115893
      CHANNELS 3 Zrotation Xrotation Yrotation
      JOINT Bip001_R_Calf
      {
        OFFSET 0.706994 -44.0221 0.35984
        CHANNELS 3 Zrotation Xrotation Yrotation
        JOINT Bip001_R_Foot
        {
          OFFSET 0.651786 -40.5938 -3.5613
          CHANNELS 3 Zrotation Xrotation Yrotation
          JOINT Bip001_R_Toe0
          {
            OFFSET -0.0531479 -10.2181 13.1504
            CHANNELS 3 Zrotation Xrotation Yrotation
            End Site
            {
              OFFSET -1.02894e-005 0 7.55606
            }
          }
        }
      }
    }
    JOINT Bip001_Spine1
    {
      OFFSET 1.87041e-005 14.5736 1.08638
      CHANNELS 3 Zrotation Xrotation Yrotation
      JOINT Bip001_Spine2
      {
        OFFSET 2.24614e-005 14.5058 -1.69078
        CHANNELS 3 Zrotation Xrotation Yrotation
        JOINT Bip001_Neck
        {
          OFFSET 2.20278e-005 15.3945 -0.489414
          CHANNELS 3 Zrotation Xrotation Yrotation
          JOINT Bip001_L_Clavicle
          {
            OFFSET 6.06036 -0.000579998 0.00836775
            CHANNELS 3 Zrotation Xrotation Yrotation
            JOINT Bip001_L_UpperArm
            {
              OFFSET 11.5509 -0.0600302 0.00193952
              CHANNELS 3 Zrotation Xrotation Yrotation
              JOINT Bip001_L_Forearm
              {
                OFFSET 25.9523 0.0806089 -2.15551
                CHANNELS 3 Zrotation Xrotation Yrotation
                JOINT Bip001_L_Hand
                {
                  OFFSET 32.2475 0.153767 1.63968
                  CHANNELS 3 Zrotation Xrotation Yrotation
                  JOINT Bip001_L_Finger0
                  {
                    OFFSET 6.04639 -2.20976 5.90322
                    CHANNELS 3 Zrotation Xrotation Yrotation
                    End Site
                    {
                      OFFSET 4.22375 -1.43895 0.606485
                    }
                  }
                  JOINT Bip001_L_Finger1
                  {
                    OFFSET 11.0826 -0.704819 -0.198153
                    CHANNELS 3 Zrotation Xrotation Yrotation
                    End Site
                    {
                      OFFSET 6.20027 -0.397518 -0.0787166
                    }
                  }
                }
              }
            }
          }
          JOINT Bip001_R_Clavicle
          {
            OFFSET -6.06037 -0.000563197 0.00835105
            CHANNELS 3 Zrotation Xrotation Yrotation
            JOINT Bip001_R_UpperArm
            {
              OFFSET -11.5509 -0.0599978 0.00190698
              CHANNELS 3 Zrotation Xrotation Yrotation
              JOINT Bip001_R_Forearm
              {
                OFFSET -25.9523 0.0806822 -2.15589
                CHANNELS 3 Zrotation Xrotation Yrotation
                JOINT Bip001_R_Hand
                {
                  OFFSET -32.2475 0.153859 1.63989
                  CHANNELS 3 Zrotation Xrotation Yrotation
                  JOINT Bip001_R_Finger0
                  {
                    OFFSET -6.04641 -2.20976 5.90317
                    CHANNELS 3 Zrotation Xrotation Yrotation
                    End Site
                    {
                      OFFSET -4.22376 -1.43895 0.60647
                    }
                  }
                  JOINT Bip001_R_Finger1
                  {
                    OFFSET -11.0826 -0.704794 -0.198182
                    CHANNELS 3 Zrotation Xrotation Yrotation
                    End Site
                    {
                      OFFSET -6.20028 -0.397504 -0.0787333
                    }
                  }
                }
              }
            }
          }
          JOINT Bip001_Head
          {
            OFFSET 1.09673e-005 11.2744 2.05948
            CHANNELS 3 Zrotation Xrotation Yrotation
            End Site
            {
              OFFSET 2.89576e-005 20.8808 -2.77728e-005
            }
          }
        }
      }
    }
  }
}
MOTION
Frames:	12
Frame Time:	0.04
33.5425 95.839 -30.0941 -0.939039 0.159583 -1.4342 0.361955 2.19603 0.411413 5.96743 -3.47433 3.21101 -0.552861 9.59893 6.76774 -0.169714 -6.11418 0.0413401 1.12638 -3.84381 -0.658471 -3.79738 -3.25614 5.49086 2.227 7.96409 -1.37361 -6.96487 -6.23989 -5.8516 2.38125 -7.99482 2.40322 0.708831 4.39455 0.814787 0.708709 4.39456 0.815514 10.773 -12.3207 -5.22984 -34.5547 11.0265 1.9091 -49.9009 37.3873 -3.37232 13.7292 -3.73692 -27.226 8.31417 0.364142 -4.58656 -3.18055e-015 -6.36111e-015 3.18055e-015 -3.18055e-015 -6.36111e-015 -0 14.9868 16.4589 8.0235 47.3783 4.81225 1.78537 -12.582 50.8138 21.6334 -7.57951 -3.6839 0.30549 -3.18055e-015 3.18055e-015 7.95139e-016 -0 0 7.95139e-016 -8.7969 -1.88305 -1.11145 
33.5808 95.8391 -30.0723 -0.708377 -0.0850855 -1.06937 0.275064 2.25293 0.411429 5.72593 -3.31864 4.52703 -0.176893 9.5167 5.13128 -0.127557 -5.97117 0.0413292 1.26532 -3.93704 -0.810319 -4.02475 -3.175 4.85421 2.31375 8.35467 -1.21044 -6.98193 -6.47762 -5.75021 2.36605 -7.94968 2.40295 0.535563 4.50772 0.796584 0.535666 4.50773 0.795689 10.3293 -12.6282 -5.38943 -34.0752 11.2752 2.19162 -50.0178 36.8333 -3.41039 13.9514 -4.65727 -28.6556 8.53976 0.278664 -4.5181 -3.18055e-015 -3.18055e-015 3.18055e-015 -6.36111e-015 -3.18056e-015 -0 15.5534 16.6044 7.28168 47.8448 0.571053 2.10806 -12.5007 53.5753 21.8537 -6.20702 -4.50645 2.25328 -1.59028e-015 0 -7.95139e-016 1.59028e-015 -3.18056e-015 -7.95139e-016 -8.25671 -1.71719 -1.47354 
33.5467 95.8338 -30.0289 -0.669733 -0.239548 -0.838182 0.218073 2.29993 0.411442 5.72465 -3.21185 5.01109 -0.0130834 9.45558 4.40614 -0.0458838 -5.88881 0.041323 1.33703 -4.06103 -0.862556 -3.96144 -3.14232 4.99099 2.36137 8.62689 -1.27973 -7.12845 -6.53934 -5.99973 2.34454 -7.88619 2.3878 0.420008 4.60135 0.815667 0.42008 4.60135 0.815391 9.88184 -13.0294 -5.47736 -33.6555 11.6095 2.57619 -50.4192 36.0067 -2.98255 14.304 -5.12191 -30.3449 9.49557 0.429236 -4.70712 -5.29669e-031 -3.18055e-015 -9.54166e-015 -1.05934e-030 -6.36111e-015 -9.54166e-015 16.1297 16.8029 6.3959 48.3038 -4.08787 2.50977 -12.7863 56.4489 22.7068 -5.37979 -5.27438 3.99094 8.82781e-032 6.36111e-015 -7.95139e-016 -3.18055e-015 6.36111e-015 -0 -7.67339 -1.35027 -1.76794 
33.5028 95.8106 -29.9693 -0.711033 -0.390471 -0.585923 0.197305 2.34621 0.403407 5.7863 -3.09199 5.66752 0.00343059 9.29756 3.43086 1.45518 -5.00146 0.0268041 2.10822 -5.19274 -1.49584 -3.81431 -3.07919 5.1602 2.34823 8.86702 -1.36846 -7.27764 -6.60334 -6.274 2.35404 -7.90596 2.37966 0.37657 4.69373 0.801195 0.378092 4.69374 0.800496 9.45926 -13.5046 -5.52751 -33.2682 12.0692 2.80803 -50.8758 35.4883 -2.33269 14.2563 -5.44452 -31.5854 10.1601 0.43245 -4.79577 -6.36111e-015 3.18055e-015 3.18055e-015 -3.18055e-015 3.18056e-015 3.18055e-015 16.4593 17.0676 5.60419 49.0758 -8.16662 3.0283 -14.3149 58.6591 24.2653 -4.76416 -5.42141 5.73976 -8.82781e-032 -3.18055e-015 -1.59028e-015 -1.59028e-015 6.36111e-015 -7.95139e-016 -7.2655 -0.725713 -1.95633 
33.4765 95.7753 -29.8703 -0.734224 -0.49892 -0.286849 0.202965 2.3737 0.349843 5.90853 -3.10861 6.12068 -0.09889 9.51413 2.72247 1.99181 -4.91337 0.0281582 2.32259 -5.50817 -1.67267 -3.74145 -2.92775 4.81588 2.27058 8.99475 -1.31595 -7.34956 -6.75008 -6.23716 2.39088 -8.02417 2.42597 0.390584 4.74857 0.691983 0.389696 4.7486 0.692204 8.89608 -13.4075 -5.25204 -32.6807 12.2049 2.60124 -51.0063 35.8511 -1.89975 14.1429 -5.10528 -31.865 10.3128 0.349753 -5.14524 -9.54166e-015 3.18055e-015 -3.18055e-015 -6.36111e-015 3.18056e-015 -6.36111e-015 17.0273 16.8283 5.0252 49.6078 -12.2048 2.99548 -17.8933 60.5176 27.7936 -6.12691 -5.06889 6.65279 -1.76556e-031 6.36111e-015 1.59028e-015 -1.59028e-015 3.18056e-015 1.59028e-015 -6.8723 -0.719425 -1.90297 
33.4688 95.7437 -29.7821 -0.766684 -0.473269 -0.0239209 0.215177 2.36795 0.340966 6.19327 -3.28201 6.12861 -0.518008 9.93426 2.70132 1.77125 -5.46446 0.0299352 2.31392 -5.29807 -1.70037 -3.67248 -2.81643 4.69375 2.2114 8.97687 -1.23018 -7.53837 -6.81023 -6.40204 2.46288 -8.21426 2.45427 0.41679 4.73712 0.673966 0.416938 4.73712 0.672881 8.34165 -13.7207 -4.77063 -32.0995 12.7845 2.43165 -50.9049 37.0044 -1.72893 14.228 -4.17858 -31.025 9.66409 0.476981 -5.58959 3.18055e-015 3.18055e-015 -6.36111e-015 6.36111e-015 -3.18056e-015 -3.18055e-015 17.7701 16.8291 3.81008 49.9338 -15.705 1.6643 -25.6124 59.2723 35.2436 -9.47385 -5.18816 6.95118 3.18055e-015 3.18055e-015 -1.59028e-015 6.36111e-015 3.18056e-015 -3.18055e-015 -6.83947 -0.247121 -1.53656 
33.5334 95.7029 -29.7157 -0.609648 -0.328933 0.491274 0.138681 2.29392 0.34787 6.23753 -3.55641 6.6593 -0.668088 10.2901 1.85002 1.78899 -5.81654 0.0314018 2.31715 -5.20104 -1.70249 -3.73849 -2.82567 4.16244 2.09941 9.20532 -1.15908 -7.6798 -7.03666 -6.42229 2.55803 -8.48147 2.51997 0.265349 4.58865 0.680428 0.264103 4.58865 0.685666 8.47266 -13.814 -4.24939 -31.7284 13.1897 1.83278 -51.3387 37.8052 -0.688506 15.1522 -2.08121 -30.5159 7.78224 0.46457 -5.75054 -3.18055e-015 3.18055e-015 -6.36111e-015 -6.36111e-015 6.36111e-015 -3.18055e-015 17.8693 16.1774 1.49926 50.3802 -18.321 -1.89885 -30.1146 46.7119 41.4129 -14.5769 -5.82463 6.25582 6.36111e-015 0 3.18055e-015 3.18055e-015 3.18056e-015 6.36111e-015 -7.4121 -0.276827 -0.891365 
33.6271 95.6767 -29.5941 -0.513001 -0.187276 1.29926 0.0719358 2.16089 0.264824 6.37776 -3.94241 7.55739 -0.628109 11.116 0.47691 0.0525348 -7.3754 0.0385835 1.48118 -3.93154 -0.999094 -3.786 -2.44041 2.97318 1.87601 8.96748 -1.01676 -7.74514 -7.20863 -6.05326 2.71812 -8.9563 2.67085 0.131697 4.32209 0.527702 0.132853 4.32208 0.527696 8.61611 -13.8417 -3.47534 -31.0041 13.6708 0.95599 -53.2902 37.2515 2.47572 17.0319 0.877686 -31.1969 6.99794 0.604202 -6.13285 -6.36111e-015 -6.36111e-015 1.59028e-015 -6.36111e-015 0 1.59028e-015 17.9504 14.9894 -2.20868 50.3185 -19.2909 -6.65078 -36.5509 28.2798 52.8442 -19.9673 -5.22919 4.81493 -3.18055e-015 -3.18055e-015 -0 -2.38542e-015 -3.18056e-015 6.36111e-015 -8.39018 -0.1258 0.0949033 
33.8063 95.6398 -29.5107 -0.500871 -0.120852 1.84746 0.077285 2.04244 0.179823 6.36042 -4.19462 8.61801 -0.558274 11.7 -0.994083 0.302144 -7.71781 0.0408194 1.53051 -3.87753 -1.06726 -3.86827 -2.2849 2.58992 1.80225 9.10103 -0.853748 -7.93401 -7.22236 -6.25664 2.86528 -9.38126 2.80148 0.149971 4.08513 0.357143 0.154793 4.08513 0.35711 8.62822 -13.9374 -2.26478 -30.1045 14.3019 0.158378 -55.6958 36.1527 6.41153 18.6004 2.9592 -32.7313 7.55743 0.180125 -6.24472 0 0 -1.59028e-015 1.76556e-031 3.18056e-015 -3.18055e-015 17.6137 14.0651 -5.27671 47.4984 -24.7013 -11.3608 -45.8179 13.364 70.2177 -21.3689 -5.68758 5.13235 7.95139e-016 1.59028e-015 -9.54166e-015 2.38542e-015 1.59028e-015 -9.54166e-015 -9.29371 0.284832 1.46999 
34.0735 95.627 -29.3226 -0.492148 0.115828 1.98955 0.0801409 1.90627 0.232998 6.21357 -4.37095 8.61739 -0.538477 12.0846 -1.15616 0.109425 -8.21937 0.0405828 1.31676 -3.42588 -0.906328 -3.97347 -2.37984 2.60991 1.71045 9.32497 -0.971167 -8.0771 -7.12623 -6.51908 2.91178 -9.67464 3.05898 0.15196 3.81284 0.463363 0.151463 3.81284 0.46359 8.86534 -13.668 -1.32748 -29.4455 14.3938 -0.433509 -58.1812 35.5432 9.79358 18.6193 1.75269 -33.8225 7.3507 0.490027 -5.75938 -3.18055e-015 -3.18055e-015 -0 -3.18055e-015 -3.18056e-015 -0 15.291 13.509 -5.91754 42.5678 -36.9794 -14.5482 -48.6667 3.26524 85.9742 -23.8894 -6.88439 4.74938 6.36111e-015 3.18055e-015 -0 3.18055e-015 4.77083e-015 -0 -9.98409 -0.0509197 2.55218 
34.2846 95.6012 -28.9909 -0.761903 -0.0177657 2.32436 0.147869 1.80432 0.325257 6.49569 -4.39693 9.30683 -0.587365 12.9726 -2.12081 0.0730658 -8.90679 0.0402464 1.21125 -2.90579 -0.926007 -3.71375 -1.75777 1.9659 1.26715 8.99342 -0.892723 -8.18701 -6.94162 -6.6594 2.90481 -10.009 3.574 0.290649 3.60951 0.647092 0.288345 3.60951 0.6465 8.64914 -12.9295 -0.857539 -29.6646 13.8148 -0.454035 -59.6164 35.5027 13.2195 18.4444 -0.396671 -34.8868 6.49048 1.01666 -4.393 3.18055e-015 -6.36111e-015 -3.18055e-015 3.18055e-015 -9.54167e-015 -6.36111e-015 13.8768 13.1532 -4.39634 35.1727 -49.1079 -15.9142 -44.1593 -3.78885 96.7192 -24.6079 -6.5728 4.54764 -3.18055e-015 -3.18055e-015 3.18055e-015 -0 0 3.18055e-015 -10.3412 -1.17252 3.00451 
34.4892 95.5524 -28.7262 -0.880822 -0.226658 3.18137 0.159217 1.71565 0.457324 6.74835 -4.44255 10.1174 -0.637752 13.741 -3.81794 0.0580071 -9.42982 0.0398708 1.09817 -2.41848 -1.05842 -3.54343 -1.22301 1.01938 0.959954 9.19208 -0.729352 -8.27495 -6.94646 -6.66952 2.95059 -10.0877 3.56945 0.302392 3.43248 0.910081 0.303554 3.4325 0.910387 7.9063 -13.1639 -0.654909 -29.1684 14.0167 0.112609 -61.2303 36.4886 15.8077 18.8079 -1.96302 -34.5554 6.60071 0.886952 -3.55908 -6.36111e-015 -3.18055e-015 3.18055e-015 -6.36111e-015 0 6.36111e-015 12.992 13.8762 -2.50675 27.7284 -63.0112 -14.7623 -40.4287 -5.25097 103.982 -24.8659 -6.02445 4.5459 9.54166e-015 0 1.59028e-015 1.27222e-014 0 -0 -10.3322 -0.879888 3.05474 
